<svg width="86" height="43" viewBox="0 0 86 43" fill="none" xmlns="http://www.w3.org/2000/svg">
<path d="M20.0759 23.8253H14.5681L13.4157 27.1358H10.8474L16.2185 12.9171H18.4353L23.8161 27.1358H21.238L20.0759 23.8253ZM15.2614 21.8331H19.3825L17.322 15.9346L15.2614 21.8331ZM30.2576 18.7374C29.9451 18.6853 29.6228 18.6592 29.2908 18.6592C28.2036 18.6592 27.4711 19.0759 27.0935 19.9092V27.1358H24.7205V16.5694H26.9861L27.0447 17.751C27.6176 16.8331 28.4119 16.3741 29.4275 16.3741C29.7661 16.3741 30.046 16.4197 30.2674 16.5108L30.2576 18.7374ZM36.8065 18.7374C36.494 18.6853 36.1717 18.6592 35.8397 18.6592C34.7525 18.6592 34.02 19.0759 33.6424 19.9092V27.1358H31.2694V16.5694H33.535L33.5936 17.751C34.1665 16.8331 34.9608 16.3741 35.9764 16.3741C36.315 16.3741 36.5949 16.4197 36.8163 16.5108L36.8065 18.7374ZM40.3476 27.1358H37.9745V16.5694H40.3476V27.1358ZM37.8281 13.8253C37.8281 13.4607 37.942 13.1579 38.1699 12.9171C38.4042 12.6762 38.7363 12.5557 39.1659 12.5557C39.5956 12.5557 39.9277 12.6762 40.162 12.9171C40.3964 13.1579 40.5136 13.4607 40.5136 13.8253C40.5136 14.1833 40.3964 14.4828 40.162 14.7237C39.9277 14.9581 39.5956 15.0753 39.1659 15.0753C38.7363 15.0753 38.4042 14.9581 38.1699 14.7237C37.942 14.4828 37.8281 14.1833 37.8281 13.8253ZM46.1836 24.128L48.4199 16.5694H50.8711L47.209 27.1358H45.1484L41.457 16.5694H43.918L46.1836 24.128ZM58.0352 27.1358C57.9311 26.934 57.8399 26.6052 57.7618 26.1495C57.0066 26.9372 56.0821 27.3311 54.9883 27.3311C53.9272 27.3311 53.0613 27.0284 52.3907 26.4229C51.7201 25.8174 51.3848 25.0687 51.3848 24.1768C51.3848 23.0505 51.8015 22.1879 52.6348 21.5889C53.4747 20.9835 54.6726 20.6807 56.2286 20.6807H57.6837V19.9874C57.6837 19.4405 57.5307 19.0043 57.2247 18.6788C56.9187 18.3467 56.4532 18.1807 55.8282 18.1807C55.2878 18.1807 54.8451 18.3174 54.5001 18.5909C54.155 18.8578 53.9825 19.1996 53.9825 19.6163H51.6094C51.6094 19.0368 51.8015 18.4965 52.1856 17.9952C52.5697 17.4874 53.0906 17.0902 53.7481 16.8038C54.4122 16.5173 55.1511 16.3741 55.9649 16.3741C57.2019 16.3741 58.1882 16.6866 58.9239 17.3116C59.6596 17.9301 60.0372 18.8025 60.0567 19.9288V24.6944C60.0567 25.6449 60.1902 26.4034 60.4571 26.9698V27.1358H58.0352ZM55.4278 25.4268C55.8966 25.4268 56.336 25.3129 56.7462 25.085C57.1628 24.8572 57.4753 24.5512 57.6837 24.1671V22.1749H56.4044C55.5255 22.1749 54.8647 22.3279 54.4219 22.6339C53.9792 22.9398 53.7579 23.3728 53.7579 23.9327C53.7579 24.3884 53.9076 24.753 54.2071 25.0264C54.5131 25.2934 54.92 25.4268 55.4278 25.4268ZM64.5841 27.1358H62.2111V12.1358H64.5841V27.1358ZM72.6174 24.2647C72.6174 23.8415 72.4416 23.5193 72.0901 23.2979C71.745 23.0766 71.1688 22.8812 70.3615 22.712C69.5542 22.5427 68.8804 22.3279 68.3401 22.0674C67.1552 21.4945 66.5627 20.6644 66.5627 19.5772C66.5627 18.6658 66.9468 17.904 67.7151 17.2921C68.4833 16.6801 69.4598 16.3741 70.6447 16.3741C71.9078 16.3741 72.9266 16.6866 73.7014 17.3116C74.4826 17.9366 74.8733 18.7471 74.8733 19.7432H72.5002C72.5002 19.2875 72.3309 18.9099 71.9924 18.6104C71.6539 18.3044 71.2046 18.1514 70.6447 18.1514C70.1239 18.1514 69.6975 18.2719 69.3654 18.5128C69.0399 18.7536 68.8772 19.0759 68.8772 19.4796C68.8772 19.8441 69.0302 20.1273 69.3361 20.3292C69.6421 20.531 70.2606 20.7361 71.1916 20.9444C72.1226 21.1462 72.8518 21.3904 73.3791 21.6768C73.913 21.9568 74.3069 22.2953 74.5608 22.6924C74.8212 23.0896 74.9514 23.5714 74.9514 24.1378C74.9514 25.0883 74.5575 25.8598 73.7697 26.4522C72.982 27.0381 71.9501 27.3311 70.674 27.3311C69.8082 27.3311 69.0367 27.1749 68.3596 26.8624C67.6825 26.5499 67.1552 26.1202 66.7776 25.5733C66.3999 25.0264 66.2111 24.4372 66.2111 23.8057H68.5158C68.5484 24.3656 68.76 24.7986 69.1506 25.1046C69.5412 25.404 70.0588 25.5538 70.7033 25.5538C71.3283 25.5538 71.8036 25.4366 72.1291 25.2022C72.4546 24.9613 72.6174 24.6488 72.6174 24.2647Z" fill="black"/>
</svg>
