<svg width="8" height="20" viewBox="0 0 8 20" fill="none" xmlns="http://www.w3.org/2000/svg">
<path fill-rule="evenodd" clip-rule="evenodd" d="M2.63763 3.26995C2.63763 3.56789 2.86555 3.8097 3.14638 3.8097C3.42721 3.8097 3.65513 3.56789 3.65513 3.26995C3.65513 2.972 3.42721 2.73019 3.14638 2.73019C2.86555 2.73019 2.63763 2.972 2.63763 3.26995ZM0.772217 4.16954C0.772217 2.18204 2.29055 0.571167 4.16389 0.571167C6.03722 0.571167 7.55556 2.18204 7.55556 4.16954C7.55556 6.15704 6.03722 7.76791 4.16389 7.76791C2.29055 7.76791 0.772217 6.15704 0.772217 4.16954ZM4.16388 19.3679L3.48555 17.2089V8.48757C3.70669 8.52715 3.93189 8.55234 4.16388 8.55234C4.39587 8.55234 4.62108 8.52715 4.84222 8.48757V17.2089L4.16388 19.3679Z" fill="black"/>
</svg>
