<svg width="560" height="96" viewBox="0 0 560 96" fill="none" xmlns="http://www.w3.org/2000/svg">
<g clip-path="url(#clip0)">
<rect width="560" height="96" fill="white"/>
<g filter="url(#filter0_bd)">
<path fill-rule="evenodd" clip-rule="evenodd" d="M0 0H560V96H0V0Z" fill="#5AC8FA"/>
</g>
<path d="M257.076 26.6879H251.568L250.416 29.9985H247.847L253.218 15.7797H255.435L260.816 29.9985H258.238L257.076 26.6879ZM252.261 24.6957H256.383L254.322 18.7973L252.261 24.6957ZM267.258 21.6C266.945 21.548 266.623 21.5219 266.291 21.5219C265.204 21.5219 264.471 21.9386 264.094 22.7719V29.9985H261.72V19.4321H263.986L264.045 20.6137C264.618 19.6957 265.412 19.2368 266.428 19.2368C266.766 19.2368 267.046 19.2823 267.267 19.3735L267.258 21.6ZM273.807 21.6C273.494 21.548 273.172 21.5219 272.84 21.5219C271.752 21.5219 271.02 21.9386 270.642 22.7719V29.9985H268.269V19.4321H270.535L270.594 20.6137C271.167 19.6957 271.961 19.2368 272.976 19.2368C273.315 19.2368 273.595 19.2823 273.816 19.3735L273.807 21.6ZM277.348 29.9985H274.975V19.4321H277.348V29.9985ZM274.828 16.6879C274.828 16.3233 274.942 16.0206 275.17 15.7797C275.404 15.5388 275.736 15.4184 276.166 15.4184C276.596 15.4184 276.928 15.5388 277.162 15.7797C277.396 16.0206 277.514 16.3233 277.514 16.6879C277.514 17.046 277.396 17.3455 277.162 17.5864C276.928 17.8207 276.596 17.9379 276.166 17.9379C275.736 17.9379 275.404 17.8207 275.17 17.5864C274.942 17.3455 274.828 17.046 274.828 16.6879ZM283.184 26.9907L285.42 19.4321H287.871L284.209 29.9985H282.148L278.457 19.4321H280.918L283.184 26.9907ZM295.035 29.9985C294.931 29.7967 294.84 29.4679 294.762 29.0121C294.007 29.7999 293.082 30.1938 291.988 30.1938C290.927 30.1938 290.061 29.8911 289.391 29.2856C288.72 28.6801 288.385 27.9314 288.385 27.0395C288.385 25.9132 288.802 25.0506 289.635 24.4516C290.475 23.8461 291.673 23.5434 293.229 23.5434H294.684V22.85C294.684 22.3032 294.531 21.867 294.225 21.5414C293.919 21.2094 293.453 21.0434 292.828 21.0434C292.288 21.0434 291.845 21.1801 291.5 21.4536C291.155 21.7205 290.982 22.0623 290.982 22.4789H288.609C288.609 21.8995 288.802 21.3592 289.186 20.8578C289.57 20.35 290.091 19.9529 290.748 19.6664C291.412 19.38 292.151 19.2368 292.965 19.2368C294.202 19.2368 295.188 19.5493 295.924 20.1743C296.66 20.7927 297.037 21.6651 297.057 22.7914V27.5571C297.057 28.5076 297.19 29.2661 297.457 29.8325V29.9985H295.035ZM292.428 28.2895C292.897 28.2895 293.336 28.1756 293.746 27.9477C294.163 27.7198 294.475 27.4138 294.684 27.0297V25.0375H293.404C292.525 25.0375 291.865 25.1905 291.422 25.4965C290.979 25.8025 290.758 26.2355 290.758 26.7953C290.758 27.2511 290.908 27.6157 291.207 27.8891C291.513 28.156 291.92 28.2895 292.428 28.2895ZM301.584 29.9985H299.211V14.9985H301.584V29.9985ZM309.617 27.1274C309.617 26.7042 309.442 26.3819 309.09 26.1606C308.745 25.9392 308.169 25.7439 307.362 25.5746C306.554 25.4054 305.88 25.1905 305.34 24.9301C304.155 24.3572 303.563 23.5271 303.563 22.4399C303.563 21.5284 303.947 20.7667 304.715 20.1547C305.483 19.5427 306.46 19.2368 307.645 19.2368C308.908 19.2368 309.927 19.5493 310.701 20.1743C311.483 20.7993 311.873 21.6098 311.873 22.6059H309.5C309.5 22.1502 309.331 21.7726 308.992 21.4731C308.654 21.1671 308.205 21.0141 307.645 21.0141C307.124 21.0141 306.697 21.1345 306.365 21.3754C306.04 21.6163 305.877 21.9386 305.877 22.3422C305.877 22.7068 306.03 22.99 306.336 23.1918C306.642 23.3937 307.261 23.5987 308.192 23.8071C309.123 24.0089 309.852 24.253 310.379 24.5395C310.913 24.8194 311.307 25.158 311.561 25.5551C311.821 25.9523 311.951 26.434 311.951 27.0004C311.951 27.9509 311.558 28.7224 310.77 29.3149C309.982 29.9008 308.95 30.1938 307.674 30.1938C306.808 30.1938 306.037 30.0375 305.36 29.725C304.683 29.4125 304.155 28.9828 303.778 28.436C303.4 27.8891 303.211 27.2999 303.211 26.6684H305.516C305.548 27.2283 305.76 27.6612 306.151 27.9672C306.541 28.2667 307.059 28.4164 307.703 28.4164C308.328 28.4164 308.804 28.2993 309.129 28.0649C309.455 27.824 309.617 27.5115 309.617 27.1274Z" fill="black"/>
</g>
<defs>
<filter id="filter0_bd" x="-27.1828" y="-27.1828" width="614.366" height="150.366" filterUnits="userSpaceOnUse" color-interpolation-filters="sRGB">
<feFlood flood-opacity="0" result="BackgroundImageFix"/>
<feGaussianBlur in="BackgroundImage" stdDeviation="13.5914"/>
<feComposite in2="SourceAlpha" operator="in" result="effect1_backgroundBlur"/>
<feColorMatrix in="SourceAlpha" type="matrix" values="0 0 0 0 0 0 0 0 0 0 0 0 0 0 0 0 0 0 127 0"/>
<feOffset dy="0.5"/>
<feColorMatrix type="matrix" values="0 0 0 0 0 0 0 0 0 0 0 0 0 0 0 0 0 0 0.3 0"/>
<feBlend mode="normal" in2="effect1_backgroundBlur" result="effect2_dropShadow"/>
<feBlend mode="normal" in="SourceGraphic" in2="effect2_dropShadow" result="shape"/>
</filter>
<clipPath id="clip0">
<rect width="560" height="96" fill="white"/>
</clipPath>
</defs>
</svg>
