<svg width="514" height="101" viewBox="0 0 514 101" fill="none" xmlns="http://www.w3.org/2000/svg">
<rect width="512.958" height="27.3578" transform="translate(0.358368 38.6422)" fill="#5AC8FA"/>
<path fill-rule="evenodd" clip-rule="evenodd" d="M0.358368 38.6422V66H513.317V38.6422H0.358368Z" fill="black" fill-opacity="0.01"/>
<path d="M42.3037 54.6539H45.2158V58.82C44.7627 58.9645 44.3017 59.0739 43.833 59.1481C43.3642 59.2223 42.8213 59.2594 42.2041 59.2594C40.9072 59.2594 39.8974 58.8746 39.1748 58.1051C38.4521 57.3317 38.0908 56.2496 38.0908 54.859C38.0908 53.9684 38.2685 53.1891 38.624 52.5211C38.9834 51.8493 39.499 51.3375 40.1709 50.986C40.8427 50.6305 41.6299 50.4528 42.5322 50.4528C43.4463 50.4528 44.2978 50.6207 45.0869 50.9567L44.7002 51.8356C43.9267 51.5075 43.1826 51.3434 42.4677 51.3434C41.4248 51.3434 40.6103 51.6539 40.0244 52.275C39.4384 52.8961 39.1455 53.7575 39.1455 54.859C39.1455 56.0153 39.4267 56.8922 39.9892 57.4899C40.5556 58.0875 41.3857 58.3864 42.4795 58.3864C43.0732 58.3864 43.6533 58.318 44.2197 58.1813V55.5446H42.3037V54.6539ZM52.1123 56.8629C52.1123 57.6168 51.8388 58.2047 51.292 58.6266C50.7451 59.0485 50.0029 59.2594 49.0654 59.2594C48.0498 59.2594 47.2685 59.1286 46.7216 58.8668V57.9059C47.0732 58.0543 47.456 58.1715 47.8701 58.2575C48.2841 58.3434 48.6943 58.3864 49.1006 58.3864C49.7646 58.3864 50.2646 58.2614 50.6006 58.0114C50.9365 57.7575 51.1045 57.4059 51.1045 56.9567C51.1045 56.6598 51.0439 56.4176 50.9228 56.2301C50.8056 56.0387 50.6064 55.8629 50.3252 55.7028C50.0478 55.5426 49.624 55.361 49.0537 55.1579C48.2568 54.8727 47.6865 54.5348 47.3427 54.1442C47.0029 53.7536 46.833 53.2438 46.833 52.6149C46.833 51.9547 47.081 51.4293 47.5771 51.0387C48.0732 50.6481 48.7295 50.4528 49.5459 50.4528C50.3974 50.4528 51.1806 50.609 51.8955 50.9215L51.5849 51.7887C50.8779 51.4918 50.1904 51.3434 49.5224 51.3434C48.9951 51.3434 48.583 51.4567 48.2861 51.6832C47.9892 51.9098 47.8408 52.2243 47.8408 52.6266C47.8408 52.9235 47.8955 53.1676 48.0049 53.359C48.1142 53.5465 48.2978 53.7204 48.5556 53.8805C48.8174 54.0368 49.2158 54.2106 49.7509 54.402C50.6494 54.7223 51.2666 55.0661 51.6025 55.4332C51.9424 55.8004 52.1123 56.277 52.1123 56.8629Z" fill="black"/>
<path d="M443.253 59.4298H442.304V53.3244C442.304 52.8166 442.32 52.3361 442.351 51.883C442.269 51.965 442.177 52.0509 442.075 52.1408C441.974 52.2306 441.509 52.6115 440.681 53.2834L440.165 52.6154L442.433 50.8634H443.253V59.4298ZM452.195 55.1349C452.195 56.6154 451.96 57.7209 451.491 58.4513C451.027 59.1818 450.314 59.547 449.353 59.547C448.431 59.547 447.73 59.174 447.249 58.4279C446.769 57.6779 446.529 56.5802 446.529 55.1349C446.529 53.6427 446.761 52.5353 447.226 51.8126C447.691 51.09 448.4 50.7287 449.353 50.7287C450.282 50.7287 450.988 51.1056 451.468 51.8595C451.952 52.6134 452.195 53.7052 452.195 55.1349ZM447.513 55.1349C447.513 56.381 447.659 57.2892 447.952 57.8595C448.245 58.4259 448.712 58.7091 449.353 58.7091C450.001 58.7091 450.47 58.422 450.759 57.8478C451.052 57.2697 451.198 56.3654 451.198 55.1349C451.198 53.9044 451.052 53.0041 450.759 52.4337C450.47 51.8595 450.001 51.5724 449.353 51.5724C448.712 51.5724 448.245 51.8556 447.952 52.422C447.659 52.9845 447.513 53.8888 447.513 55.1349ZM459.062 55.1349C459.062 56.6154 458.827 57.7209 458.359 58.4513C457.894 59.1818 457.181 59.547 456.22 59.547C455.298 59.547 454.597 59.174 454.116 58.4279C453.636 57.6779 453.396 56.5802 453.396 55.1349C453.396 53.6427 453.628 52.5353 454.093 51.8126C454.558 51.09 455.267 50.7287 456.22 50.7287C457.15 50.7287 457.855 51.1056 458.335 51.8595C458.82 52.6134 459.062 53.7052 459.062 55.1349ZM454.38 55.1349C454.38 56.381 454.527 57.2892 454.82 57.8595C455.113 58.4259 455.579 58.7091 456.22 58.7091C456.868 58.7091 457.337 58.422 457.626 57.8478C457.919 57.2697 458.066 56.3654 458.066 55.1349C458.066 53.9044 457.919 53.0041 457.626 52.4337C457.337 51.8595 456.868 51.5724 456.22 51.5724C455.579 51.5724 455.113 51.8556 454.82 52.422C454.527 52.9845 454.38 53.8888 454.38 55.1349ZM461.083 53.4181C461.083 54.0822 461.156 54.5802 461.3 54.9123C461.445 55.2443 461.679 55.4103 462.003 55.4103C462.644 55.4103 462.964 54.7462 462.964 53.4181C462.964 52.0978 462.644 51.4376 462.003 51.4376C461.679 51.4376 461.445 51.6017 461.3 51.9298C461.156 52.258 461.083 52.7541 461.083 53.4181ZM463.767 53.4181C463.767 54.3087 463.616 54.9826 463.316 55.4396C463.019 55.8927 462.581 56.1193 462.003 56.1193C461.456 56.1193 461.031 55.8869 460.726 55.422C460.425 54.9572 460.275 54.2892 460.275 53.4181C460.275 52.5314 460.419 51.8634 460.708 51.4142C461.001 50.965 461.433 50.7404 462.003 50.7404C462.57 50.7404 463.005 50.9728 463.31 51.4376C463.615 51.9025 463.767 52.5626 463.767 53.4181ZM466.24 56.8517C466.24 57.5197 466.312 58.0197 466.456 58.3517C466.601 58.6798 466.837 58.8439 467.165 58.8439C467.493 58.8439 467.736 58.6818 467.892 58.3576C468.048 58.0294 468.126 57.5275 468.126 56.8517C468.126 56.1837 468.048 55.6896 467.892 55.3693C467.736 55.0451 467.493 54.883 467.165 54.883C466.837 54.883 466.601 55.0451 466.456 55.3693C466.312 55.6896 466.24 56.1837 466.24 56.8517ZM468.929 56.8517C468.929 57.7384 468.779 58.4103 468.478 58.8673C468.181 59.3205 467.743 59.547 467.165 59.547C466.611 59.547 466.183 59.3146 465.882 58.8498C465.585 58.3849 465.437 57.7189 465.437 56.8517C465.437 55.965 465.581 55.297 465.87 54.8478C466.163 54.3986 466.595 54.174 467.165 54.174C467.72 54.174 468.152 54.4044 468.46 54.8654C468.773 55.3224 468.929 55.9845 468.929 56.8517ZM467.417 50.8634L462.665 59.4298H461.804L466.556 50.8634H467.417Z" fill="#030303"/>
<path opacity="0.4" d="M476.148 45.9817H501.241C502.346 45.9817 503.241 46.8771 503.241 47.9817V57.3445C503.241 58.4491 502.346 59.3445 501.241 59.3445H498.911H476.148C475.043 59.3445 474.148 58.4491 474.148 57.3445V47.9817C474.148 46.8771 475.043 45.9817 476.148 45.9817Z" stroke="black"/>
<path fill-rule="evenodd" clip-rule="evenodd" d="M505.109 55.5684C506.289 55.2647 507.161 54.1936 507.161 52.9189C507.161 51.6441 506.289 50.573 505.109 50.2693V55.5684Z" fill="black" fill-opacity="0.5"/>
<path fill-rule="evenodd" clip-rule="evenodd" d="M476.384 49.2174C476.384 48.6652 476.831 48.2174 477.384 48.2174H500.006C500.558 48.2174 501.006 48.6652 501.006 49.2174V56.1087C501.006 56.661 500.558 57.1087 500.006 57.1087H477.384C476.831 57.1087 476.384 56.661 476.384 56.1087V49.2174Z" fill="black"/>
<path d="M240.874 51.2086C240.874 52.3336 240.726 53.275 240.429 54.0329C240.136 54.7907 239.706 55.3512 239.14 55.7145C238.577 56.0778 237.895 56.2594 237.095 56.2594C236.688 56.2594 236.313 56.2086 235.97 56.1071V55.6032C236.138 55.6579 236.339 55.7008 236.573 55.7321C236.811 55.7594 236.993 55.7731 237.118 55.7731C238.083 55.7731 238.839 55.4254 239.386 54.7301C239.933 54.0309 240.237 53.0133 240.3 51.6774H240.229C239.944 52.0524 239.604 52.3414 239.21 52.5446C238.815 52.7438 238.403 52.8434 237.974 52.8434C237.181 52.8434 236.561 52.6246 236.116 52.1871C235.675 51.7496 235.454 51.1286 235.454 50.3239C235.454 49.4645 235.696 48.7692 236.181 48.2379C236.669 47.7067 237.302 47.4411 238.079 47.4411C238.642 47.4411 239.134 47.5895 239.556 47.8864C239.978 48.1793 240.302 48.611 240.528 49.1813C240.759 49.7516 240.874 50.4274 240.874 51.2086ZM238.079 47.9567C237.462 47.9567 236.97 48.1657 236.603 48.5836C236.235 48.9977 236.052 49.5661 236.052 50.2887C236.052 50.9684 236.222 51.484 236.561 51.8356C236.901 52.1871 237.388 52.3629 238.02 52.3629C238.415 52.3629 238.782 52.275 239.122 52.0993C239.466 51.9235 239.737 51.6911 239.936 51.402C240.14 51.109 240.241 50.8121 240.241 50.5114C240.241 50.0543 240.149 49.6266 239.966 49.2282C239.786 48.8297 239.532 48.5192 239.204 48.2965C238.88 48.07 238.505 47.9567 238.079 47.9567ZM242.608 55.6852C242.608 55.3024 242.765 55.111 243.077 55.111C243.397 55.111 243.558 55.3024 243.558 55.6852C243.558 56.068 243.397 56.2594 243.077 56.2594C242.765 56.2594 242.608 56.068 242.608 55.6852ZM242.608 50.4528C242.608 50.07 242.765 49.8786 243.077 49.8786C243.397 49.8786 243.558 50.07 243.558 50.4528C243.558 50.6598 243.511 50.8082 243.417 50.8981C243.327 50.9879 243.214 51.0329 243.077 51.0329C242.944 51.0329 242.833 50.9879 242.743 50.8981C242.653 50.8082 242.608 50.6598 242.608 50.4528ZM251.204 53.9567H249.728V56.1422H249.177V53.9567H244.77V53.5641L249.019 47.5289H249.728V53.4528H251.204V53.9567ZM249.177 53.4528V51.0036C249.177 49.8239 249.204 48.8336 249.259 48.0329H249.212C249.134 48.1774 248.894 48.5446 248.491 49.1344L245.468 53.4528H249.177ZM255.37 56.1422H254.796V49.902C254.796 49.3356 254.819 48.7477 254.866 48.1383C254.808 48.1969 254.747 48.2536 254.685 48.3082C254.622 48.3629 254.019 48.8375 252.874 49.7321L252.54 49.3161L254.866 47.5758H255.37V56.1422ZM266.685 53.1188H263.204L262.009 56.1422H261.347L264.792 47.5407H265.173L268.548 56.1422H267.874L266.685 53.1188ZM263.421 52.5797H266.485L265.319 49.4918C265.222 49.2496 265.104 48.9137 264.968 48.484C264.862 48.859 264.747 49.1989 264.622 49.5036L263.421 52.5797ZM273.534 56.1422L270.341 48.2321H270.294C270.325 48.7164 270.341 49.2125 270.341 49.7204V56.1422H269.767V47.5758H270.692L273.728 55.111H273.763L276.798 47.5758H277.7V56.1422H277.097V49.65C277.097 49.1969 277.12 48.7282 277.167 48.2438H277.12L273.915 56.1422H273.534Z" fill="#030303"/>
<path fill-rule="evenodd" clip-rule="evenodd" d="M71.4716 46.1656C74.9775 46.1656 78.1406 47.5874 80.3799 49.8683L78.8914 51.3144C77.0338 49.4014 74.3967 48.2068 71.4716 48.2068C68.5653 48.2068 65.9433 49.3861 64.0877 51.2775L62.5973 49.8338C64.8346 47.5731 67.9834 46.1656 71.4716 46.1656ZM77.4026 52.7608C75.9271 51.2155 73.816 50.248 71.4716 50.248C69.1471 50.248 67.052 51.1991 65.5783 52.7215L67.0693 54.1658C68.1608 53.0124 69.729 52.2892 71.4716 52.2892C73.2352 52.2892 74.8203 53.03 75.9132 54.2079L77.4026 52.7608ZM74.4219 55.6567C73.7133 54.8455 72.6545 54.3304 71.4716 54.3304C70.3108 54.3304 69.2697 54.8263 68.5615 55.6113L71.5194 58.4766L74.4219 55.6567Z" fill="#030303"/>
<path fill-rule="evenodd" clip-rule="evenodd" d="M26.8483 45.4817C26.5721 45.4817 26.3483 45.7055 26.3483 45.9817V57.9766C26.3483 58.2528 26.5721 58.4766 26.8483 58.4766H29.268C29.5441 58.4766 29.768 58.2528 29.768 57.9766V45.9817C29.768 45.7055 29.5441 45.4817 29.268 45.4817H26.8483ZM21.3767 48.9014C21.1006 48.9014 20.8767 49.1252 20.8767 49.4014V57.9766C20.8767 58.2528 21.1006 58.4766 21.3767 58.4766H23.7964C24.0726 58.4766 24.2964 58.2528 24.2964 57.9766V49.4014C24.2964 49.1252 24.0726 48.9014 23.7964 48.9014H21.3767ZM15.4051 52.1372C15.4051 51.861 15.629 51.6372 15.9051 51.6372H18.3249C18.601 51.6372 18.8249 51.861 18.8249 52.1372V57.9766C18.8249 58.2528 18.601 58.4766 18.3249 58.4766H15.9051C15.629 58.4766 15.4051 58.2528 15.4051 57.9766V52.1372ZM10.4336 54.3729C10.1575 54.3729 9.93359 54.5968 9.93359 54.8729V57.9766C9.93359 58.2528 10.1575 58.4766 10.4336 58.4766H12.8533C13.1295 58.4766 13.3533 58.2528 13.3533 57.9766V54.8729C13.3533 54.5968 13.1295 54.3729 12.8533 54.3729H10.4336Z" fill="black"/>
</svg>
